<?xml version="1.0" encoding="iso-8859-1"?>
<!-- Generator: Adobe Illustrator 19.0.0, SVG Export Plug-In . SVG Version: 6.00 Build 0)  -->
<svg xmlns="http://www.w3.org/2000/svg" xmlns:xlink="http://www.w3.org/1999/xlink" version="1.1" id="Layer_1" x="0px" y="0px" viewBox="0 0 512.001 512.001" style="enable-background:new 0 0 512.001 512.001;" xml:space="preserve" width="512px" height="512px">
<g>
	<g>
		<path d="M414.866,327.807c-1.887-1.887-4.502-2.867-7.165-2.666l-46.272,3.371l-57.54-57.552    c-3.589-3.589-9.407-3.59-12.995-0.001c-3.59,3.589-3.59,9.406-0.001,12.995l148.456,148.467l-6.932,6.932L269,275.929    l13.432-13.431L447.792,97.128l22.779,22.779c1.747,1.746,4.094,2.691,6.499,2.691c0.822,0,1.652-0.11,2.465-0.337    c3.193-0.89,5.661-3.429,6.456-6.648l25.742-104.218c0.772-3.124-0.147-6.425-2.424-8.702c-2.275-2.276-5.578-3.194-8.703-2.424    L396.389,26.012c-3.219,0.795-5.759,3.263-6.648,6.456c-0.891,3.193,0.01,6.619,2.354,8.963l22.772,22.772L256.001,223.07    L97.131,64.202l22.763-22.772c2.343-2.345,3.242-5.77,2.352-8.963s-3.431-5.661-6.648-6.456L11.394,0.269    C8.272-0.5,4.968,0.416,2.691,2.693c-2.275,2.276-3.194,5.576-2.422,8.702l25.743,104.218c0.795,3.219,3.262,5.76,6.457,6.649    c0.814,0.227,1.642,0.337,2.464,0.337c2.405,0,4.753-0.945,6.5-2.692l22.772-22.772l58.606,58.606    c1.795,1.794,4.147,2.692,6.499,2.692c2.351,0,4.704-0.897,6.499-2.692c3.589-3.589,3.589-9.407,0-12.995L77.199,84.137    l6.938-6.938l158.867,158.867l-6.938,6.938l-76.002-76.002c-3.59-3.589-9.407-3.59-12.996,0c-3.589,3.589-3.589,9.407,0,12.995    l76.002,76.002l-72.509,72.51l-46.274-3.371c-2.677-0.202-5.278,0.779-7.166,2.667L2.692,422.234    c-2.541,2.542-3.368,6.333-2.115,9.703s4.358,5.697,7.942,5.96l47.057,3.439l15.086,15.086l3.438,47.056    c0.262,3.586,2.591,6.689,5.961,7.943c1.044,0.388,2.127,0.577,3.203,0.577c2.394,0,4.744-0.937,6.5-2.692l50.824-50.823    c3.589-3.589,3.589-9.407,0-12.995c-3.589-3.589-9.406-3.589-12.996,0l-36.625,36.625l-1.917-26.246l77.256-77.256l1.918,26.246    l-18.782,18.782c-3.589,3.589-3.589,9.407,0,12.995c3.59,3.589,9.407,3.589,12.996,0l21.755-21.755    c1.888-1.888,2.861-4.504,2.667-7.168l-3.382-46.273l72.525-72.516l72.504,72.515l-3.382,46.274    c-0.194,2.664,0.779,5.281,2.669,7.169l94.441,94.428c1.755,1.755,4.104,2.691,6.499,2.691c1.076,0,2.161-0.189,3.204-0.577    c3.369-1.255,5.697-4.358,5.96-7.944l3.426-47.041l15.1-15.1l47.056-3.439c3.585-0.262,6.689-2.591,7.942-5.961    c1.253-3.369,0.428-7.16-2.116-9.703L414.866,327.807z M39.949,95.397L21.76,21.761l73.628,18.189L39.949,95.397z M490.24,21.761    l-18.189,73.64l-55.447-55.451L490.24,21.761z M56.133,422.951l-26.246-1.919l77.257-77.257l26.243,1.911L56.133,422.951z     M79.58,439.347l-6.926-6.926L427.862,77.199l6.932,6.932L79.58,439.347z M421.027,482.111l-77.264-77.253l1.917-26.246    l77.257,77.257L421.027,482.111z M455.869,422.951l-77.254-77.264l26.231-1.911l77.267,77.257L455.869,422.951z" fill="#FFFFFF"/>
	</g>
</g>
<g>
</g>
<g>
</g>
<g>
</g>
<g>
</g>
<g>
</g>
<g>
</g>
<g>
</g>
<g>
</g>
<g>
</g>
<g>
</g>
<g>
</g>
<g>
</g>
<g>
</g>
<g>
</g>
<g>
</g>
</svg>
