<?xml version="1.0" encoding="iso-8859-1"?>
<!-- Generator: Adobe Illustrator 19.0.0, SVG Export Plug-In . SVG Version: 6.00 Build 0)  -->
<svg version="1.1" id="Layer_1" xmlns="http://www.w3.org/2000/svg" xmlns:xlink="http://www.w3.org/1999/xlink" x="0px" y="0px"
	 viewBox="0 0 512.002 512.002" style="enable-background:new 0 0 512.002 512.002;" xml:space="preserve">
<path style="fill:#EFBB6A;" d="M255.363,73.13c-55.683,0-105.609-24.638-139.48-63.604C87.694,41.957,70.626,84.314,70.626,130.658
	s17.068,88.701,45.258,121.133c33.87-38.966,83.797-63.604,139.48-63.604s105.609,24.638,139.48,63.604
	c28.191-32.432,45.258-74.788,45.258-121.133s-17.07-88.701-45.26-121.133C360.972,48.491,311.046,73.13,255.363,73.13z"/>
<path style="fill:#D88948;" d="M223.421,190.943v313.154h63.89V190.943V70.377V45.255c0-10.268-8.323-18.591-18.591-18.591h-26.708
	c-10.268,0-18.591,8.323-18.591,18.591v25.122"/>
<path style="fill:#C4783F;" d="M223.421,190.943v313.154h27.879V190.943V70.377V45.255c0-10.268-3.632-18.591-8.113-18.591h-11.655
	c-4.48,0-8.113,8.323-8.113,18.591v25.122"/>
<path style="fill:#EFBB6A;" d="M307.64,65.628v130.068c-16.577-4.89-34.117-7.504-52.274-7.504c-5.088,0-10.129,0.209-15.101,0.616
	c-12.801,1.022-25.242,3.369-37.172,6.888V65.628c11.93,3.52,24.371,5.866,37.172,6.888c4.972,0.407,10.013,0.616,15.101,0.616
	C273.523,73.132,291.063,70.518,307.64,65.628z"/>
<path style="fill:#F9DAB4;" d="M133.429,27.166l-0.139,0.163c-19.969,29.494-31.608,65.052-31.608,103.327
	c0,38.288,11.64,73.845,31.608,103.339l0.139,0.151c-6.238,5.483-12.093,11.384-17.541,17.645
	C87.696,219.359,70.62,177.005,70.62,130.656c0-46.338,17.076-88.702,45.269-121.135C121.337,15.782,127.191,21.683,133.429,27.166z
	"/>
<path style="fill:#D89F55;" d="M240.265,72.516v116.291c-12.801,1.022-25.242,3.369-37.172,6.888V65.628
	C215.023,69.147,227.464,71.494,240.265,72.516z"/>
<path style="fill:#F9DAB4;" d="M394.844,9.521c28.193,32.433,45.257,74.798,45.257,121.135c0,46.349-17.064,88.702-45.257,121.135
	c-5.448-6.261-11.303-12.162-17.541-17.645l0.128-0.151c19.969-29.494,31.608-65.052,31.608-103.339
	c0-38.276-11.64-73.834-31.608-103.327l-0.139-0.163C383.529,21.683,389.396,15.794,394.844,9.521z"/>
<path d="M402.06,2.997C400.405,1.092,398.005,0,395.483,0c-2.523,0-4.922,1.094-6.576,2.999
	c-5.147,5.926-10.774,11.583-16.73,16.817c-19.124,16.823-42.07,29.495-66.357,36.645c-0.001,0-0.003,0.001-0.005,0.001
	c-3.025,0.892-6.081,1.674-9.151,2.401V44.446c0-15.055-12.248-27.303-27.303-27.303h-26.708c-15.055,0-27.303,12.248-27.303,27.303
	v14.417c-3.071-0.727-6.129-1.509-9.156-2.402c-24.318-7.159-47.266-19.83-66.372-36.647c-5.881-5.169-11.506-10.829-16.721-16.82
	C121.446,1.092,119.05,0,116.529,0c-0.001,0-0.001,0-0.002,0c-2.522,0-4.918,1.093-6.573,2.997
	c-30.57,35.167-47.406,80.218-47.406,126.851c0,46.634,16.836,91.683,47.406,126.852c1.654,1.903,4.051,2.996,6.573,2.997
	c0.001,0,0.001,0,0.002,0c2.521,0,4.917-1.092,6.573-2.994c5.216-5.994,10.842-11.654,16.723-16.823
	c19.107-16.809,42.057-29.477,66.374-36.636c3.025-0.892,6.081-1.674,9.151-2.401v77.543c0,4.811,3.9,8.712,8.712,8.712
	c4.813,0,8.712-3.901,8.712-8.712v-80.746c7.67-1.011,15.427-1.544,23.233-1.544s15.562,0.533,23.233,1.544v136.425l-46.465,15.706
	v-36.536c0-4.811-3.9-8.712-8.712-8.712c-4.813,0-8.712,3.901-8.712,8.712v42.426l-3.37,1.14c-4.559,1.54-7.005,6.485-5.464,11.044
	c1.229,3.634,4.62,5.924,8.252,5.924c0.193,0,0.388-0.035,0.582-0.048v18.192l-3.37,1.14c-4.559,1.54-7.005,6.485-5.464,11.044
	c1.229,3.634,4.62,5.924,8.252,5.924c0.193,0,0.388-0.035,0.582-0.048v18.192l-3.37,1.14c-4.559,1.54-7.005,6.485-5.464,11.044
	c1.229,3.634,4.62,5.924,8.252,5.924c0.193,0,0.388-0.035,0.582-0.048v18.192l-3.37,1.14c-4.559,1.54-7.005,6.485-5.464,11.044
	c1.229,3.634,4.62,5.924,8.252,5.924c0.193,0,0.388-0.035,0.582-0.048v20.812c0,4.811,3.9,8.712,8.712,8.712h63.89
	c4.813,0,8.712-3.901,8.712-8.712v-47.965l3.37-1.14c4.559-1.54,7.005-6.485,5.464-11.044c-1.294-3.826-4.988-6.152-8.834-5.893
	v-18.177l3.37-1.14c4.559-1.54,7.005-6.485,5.464-11.044c-1.294-3.826-4.988-6.152-8.834-5.894v-18.176l3.37-1.14
	c4.559-1.54,7.005-6.485,5.464-11.044c-1.294-3.826-4.988-6.152-8.834-5.894v-18.175l3.37-1.14c4.559-1.54,7.005-6.485,5.464-11.044
	c-1.294-3.826-4.988-6.151-8.834-5.893V200.843c3.073,0.727,6.13,1.509,9.157,2.402c24.286,7.148,47.237,19.816,66.371,36.637
	c5.879,5.167,11.504,10.826,16.721,16.82c1.655,1.902,4.053,2.994,6.575,2.994c2.522,0,4.918-1.093,6.573-2.997
	c30.564-35.159,47.395-80.21,47.395-126.852C449.453,83.206,432.622,38.156,402.06,2.997z M279.239,494.575h-46.465v-17.657
	l46.465-15.706V494.575z M279.239,442.82l-46.465,15.706v-17.859l46.465-15.706V442.82z M279.239,406.569l-46.465,15.706v-17.86
	l46.465-15.706V406.569z M279.239,370.316l-46.465,15.706v-17.859l46.465-15.706V370.316z M232.774,44.446
	c0-5.447,4.43-9.879,9.879-9.879h26.708c5.447,0,9.879,4.432,9.879,9.879v17.62c-7.67,1.011-15.427,1.544-23.233,1.544
	s-15.562-0.533-23.233-1.544V44.446z M116.889,237.703c-23.873-30.768-36.917-68.697-36.917-107.855
	c0-39.158,13.044-77.087,36.917-107.855c1.909,1.975,3.855,3.904,5.835,5.787C103.654,58.371,93.61,93.501,93.61,129.848
	c0,10.961,0.925,21.953,2.747,32.671c0.723,4.249,4.408,7.252,8.579,7.252c0.484,0,0.977-0.041,1.472-0.124
	c4.743-0.806,7.934-5.306,7.128-10.049c-1.659-9.754-2.5-19.764-2.5-29.748c0-32.137,8.652-63.21,25.054-90.472
	c17.606,13.908,37.717,24.768,58.932,31.826v117.302c-21.216,7.059-41.331,17.919-58.94,31.825
	c-6.32-10.51-11.54-21.64-15.523-33.216c-1.565-4.55-6.516-6.97-11.073-5.404c-4.549,1.566-6.969,6.523-5.403,11.073
	c4.71,13.69,10.979,26.816,18.648,39.127C120.749,233.795,118.799,235.727,116.889,237.703z M212.445,183.627V76.08
	c14.211,3.273,28.812,4.956,43.561,4.956c18.644,0,37.061-2.644,54.739-7.861c23.488-6.916,45.828-18.527,65.167-33.801
	c16.403,27.264,25.055,58.337,25.055,90.474c0,32.138-8.651,63.213-25.048,90.474c-17.624-13.911-37.735-24.768-58.926-31.817
	V95.428c0-4.811-3.9-8.712-8.712-8.712s-8.712,3.901-8.712,8.712v88.198c-14.211-3.273-28.812-4.956-43.561-4.956
	C241.256,178.671,226.655,180.353,212.445,183.627z M395.124,237.703c-1.909-1.976-3.858-3.905-5.837-5.79
	c19.065-30.589,29.105-65.719,29.105-102.066c0-36.345-10.043-71.475-29.114-102.068c1.99-1.89,3.943-3.818,5.846-5.786
	c23.863,30.76,36.906,68.691,36.906,107.854S418.987,206.942,395.124,237.703z"/>
<g>
</g>
<g>
</g>
<g>
</g>
<g>
</g>
<g>
</g>
<g>
</g>
<g>
</g>
<g>
</g>
<g>
</g>
<g>
</g>
<g>
</g>
<g>
</g>
<g>
</g>
<g>
</g>
<g>
</g>
</svg>
