<?xml version="1.0" encoding="iso-8859-1"?>
<!-- Generator: Adobe Illustrator 19.0.0, SVG Export Plug-In . SVG Version: 6.00 Build 0)  -->
<svg version="1.1" id="Layer_1" xmlns="http://www.w3.org/2000/svg" xmlns:xlink="http://www.w3.org/1999/xlink" x="0px" y="0px"
	 viewBox="0 0 512 512" style="enable-background:new 0 0 512 512;" xml:space="preserve">
<path style="fill:#EFBB6A;" d="M439.567,181.52c36.713,47.027,32.526,114.691-11.215,155.261c-6.184,5.739-13.2,10.987-21.209,15.47
	c-8.134-29.959-33.53-53.21-61.276-73.164l0.97-1.346c0,0,13.451-1.917,29.423-11.238c22.635-13.2,28.088-43.467,11.762-63.957
	c-16.177-20.307-37.078-49.902-51.396-82.599c-12.983-29.651-5.488-64.311,18.653-85.885c12.025-10.736,25.841-20.707,39.006-24.711
	c0,0-5.83,6.218-13.257,15.47c-22.795,28.419-20.821,69.353,4.495,95.548C402.534,137.961,422.773,160.014,439.567,181.52z"/>
<path style="fill:#D19B54;" d="M388.023,202.546c16.326,20.49,10.872,50.757-11.762,63.957
	c-15.972,9.321-29.423,11.238-29.423,11.238l-0.97,1.346c10.377,7.462,20.425,15.388,29.365,23.951
	c7.932-5.312,12.885-7.862,26.668-20.191c19.535-17.463,28.027-31.449,15.867-69.849c-7.838-24.752-37.294-50.493-57.866-79.662
	c-18.655-26.452-18.249-61.911,1.085-87.88c7.357-9.872,15.83-19.507,24.81-26.434c5.005-5.952,8.489-9.67,8.489-9.67
	c-13.166,4.004-26.982,13.976-39.006,24.711c-24.141,21.574-31.636,56.233-18.653,85.885
	C350.944,152.644,371.845,182.239,388.023,202.546z"/>
<polygon style="fill:#D88948;" points="423.002,372.638 423.002,463.394 285.983,463.394 224.764,463.394 87.735,463.394 
	87.735,372.638 100.889,372.638 255.374,372.638 409.859,372.638 "/>
<polygon style="fill:#C4783F;" points="172.09,372.638 172.09,463.394 137.616,463.394 122.213,463.394 87.735,463.394 
	87.735,372.638 91.044,372.638 129.914,372.638 168.783,372.638 "/>
<path style="fill:#CCCCCC;" d="M407.143,352.251c1.757,6.469,2.715,13.257,2.715,20.387H255.374V197.937
	c0,27.643,48.008,50.552,90.494,81.15C373.613,299.041,399.009,322.292,407.143,352.251z"/>
<rect x="224.762" y="463.398" style="fill:#C4783F;" width="61.219" height="40.843"/>
<path style="fill:#B3B3B3;" d="M255.374,197.937v174.701H100.889c0-7.187,0.97-14.033,2.761-20.547
	c8.18-29.879,33.53-53.073,61.219-73.004C207.355,248.489,255.374,225.58,255.374,197.937z"/>
<path style="fill:#999999;" d="M201.177,279.087c25-30.066,53.179-52.713,54.15-79.718c-1.619,27.007-48.709,49.649-90.458,79.718
	c-27.689,19.931-53.039,43.125-61.219,73.004c-1.791,6.514-2.761,13.36-2.761,20.547h61.975c0-7.187,0.581-14.033,1.653-20.547
	C169.416,322.212,184.595,299.018,201.177,279.087z"/>
<path style="fill:#EFBB6A;" d="M155.457,34.063c24.152,21.574,31.636,56.233,18.665,85.885
	c-14.318,32.697-35.23,62.291-51.408,82.599c-16.326,20.49-10.861,50.757,11.774,63.957c15.972,9.321,29.412,11.238,29.412,11.238
	l0.97,1.346c-27.689,19.931-53.039,43.125-61.219,73.004l-0.719-0.205c-7.735-4.415-14.535-9.526-20.536-15.105
	C38.654,296.211,34.456,228.546,71.181,181.52c16.794-21.505,37.033-43.558,54.032-61.151c25.327-26.194,27.301-67.129,4.506-95.548
	c-7.45-9.252-13.268-15.47-13.268-15.47C129.616,13.356,143.443,23.327,155.457,34.063z"/>
<path style="fill:#D19B54;" d="M90.886,203.28c13.222-23.868,44.925-63.982,58.961-84.018
	c20.916-29.835,16.459-70.574-10.502-95.075c-4.819-4.363-9.004-7.896-11.814-10.208c-3.709-1.924-7.421-3.512-11.081-4.625
	c0,0,5.818,6.218,13.268,15.47c22.795,28.419,20.821,69.353-4.506,95.548c-16.999,17.592-37.238,39.645-54.032,61.151
	c-36.725,47.027-32.526,114.691,11.215,155.261c6.001,5.579,12.801,10.69,20.536,15.105l0.719,0.205
	c3.12-11.397,8.744-21.819,16.037-31.461C81.962,301.596,66.775,246.807,90.886,203.28z"/>
<path d="M239.562,408.66c-4.723,0-8.557,3.833-8.557,8.556s3.833,8.557,8.557,8.557c4.735,0,8.557-3.833,8.557-8.557
	C248.119,412.493,244.296,408.66,239.562,408.66z"/>
<circle cx="206.702" cy="417.215" r="8.557"/>
<path d="M140.979,408.66c-4.735,0-8.557,3.833-8.557,8.556s3.822,8.557,8.557,8.557c4.723,0,8.557-3.833,8.557-8.557
	C149.535,412.493,145.702,408.66,140.979,408.66z"/>
<circle cx="173.834" cy="417.215" r="8.557"/>
<circle cx="272.427" cy="417.215" r="8.557"/>
<path d="M371.024,408.66c-4.735,0-8.557,3.833-8.557,8.556s3.822,8.557,8.557,8.557c4.723,0,8.557-3.833,8.557-8.557
	C379.58,412.493,375.748,408.66,371.024,408.66z"/>
<path d="M403.881,408.66c-4.735,0-8.557,3.833-8.557,8.556s3.822,8.557,8.557,8.557c4.723,0,8.557-3.833,8.557-8.557
	C412.437,412.493,408.604,408.66,403.881,408.66z"/>
<circle cx="338.153" cy="417.215" r="8.557"/>
<path d="M305.299,408.66c-4.735,0-8.556,3.833-8.556,8.556s3.822,8.557,8.556,8.557c4.723,0,8.545-3.833,8.545-8.557
	C313.843,412.493,310.021,408.66,305.299,408.66z"/>
<path d="M446.939,175.461c-2.907-3.725-8.284-4.388-12.01-1.479c-3.725,2.908-4.388,8.285-1.479,12.01
	c16.527,21.17,24.614,47.521,22.771,74.196c-1.85,26.776-13.591,51.468-33.062,69.527c-3.42,3.175-7.043,6.095-10.821,8.754
	c-9.805-23.697-29.021-42.536-47.915-57.418c4.94-1.84,10.698-4.404,16.775-7.95c12.861-7.5,21.812-20.213,24.557-34.877
	c2.768-14.787-1.028-30.023-10.413-41.803c-15.107-18.965-36.089-48.359-50.251-80.699c-11.541-26.359-4.903-56.929,16.514-76.07
	c0.64-0.572,1.277-1.133,1.91-1.685c-12.186,29.157-6.433,63.844,16.484,87.557c12.053,12.466,23.171,24.529,33.044,35.854
	c3.105,3.562,8.511,3.93,12.073,0.827c3.562-3.105,3.931-8.51,0.827-12.073c-10.066-11.546-21.384-23.827-33.64-36.502
	c-22.29-23.063-23.998-59.282-3.975-84.245c7.106-8.853,12.771-14.915,12.828-14.975c2.648-2.827,3.067-7.083,1.021-10.372
	c-2.048-3.289-6.05-4.794-9.754-3.666c-12.596,3.831-26.8,12.751-42.218,26.517c-26.952,24.086-35.306,62.544-20.789,95.697
	c14.903,34.034,36.798,64.735,52.542,84.5c6.286,7.89,8.829,18.091,6.976,27.99c-1.83,9.776-7.792,18.248-16.36,23.245
	c-11.873,6.928-22.273,9.369-25.393,9.987c-8.861-6.234-17.814-12.141-26.517-17.858c-28.854-18.952-56.107-36.853-56.107-53.306
	c0-4.725-3.831-8.557-8.557-8.557c-4.725,0-8.557,3.831-8.557,8.557c0,16.449-27.253,34.348-56.106,53.298
	c-10.122,6.648-20.587,13.522-30.842,20.908c-22.423,16.141-48.773,37.97-60.836,67.128c-3.789-2.668-7.41-5.594-10.82-8.763
	c-19.47-18.059-31.213-42.751-33.064-69.526c-1.845-26.677,6.244-53.026,22.774-74.195c13.952-17.867,31.933-38.212,53.439-60.469
	c22.92-23.704,28.679-58.383,16.498-87.545c0.629,0.548,1.262,1.106,1.895,1.673c21.42,19.134,28.061,49.705,16.527,76.071
	c-14.149,32.313-35.142,61.72-50.261,80.699c-9.382,11.776-13.177,27.009-10.41,41.792c2.746,14.669,11.7,27.385,24.565,34.889
	c4.083,2.38,9.321,1.001,11.702-3.082c2.381-4.082,1.002-9.321-3.08-11.702c-8.569-4.997-14.535-13.474-16.365-23.253
	c-1.853-9.895,0.689-20.094,6.973-27.981c15.755-19.778,37.662-50.493,52.553-84.501c14.508-33.164,6.148-71.621-20.801-95.694
	c-15.395-13.762-29.599-22.684-42.218-26.522c-3.707-1.128-7.704,0.375-9.752,3.662s-1.631,7.54,1.013,10.368
	c0.057,0.06,5.717,6.129,12.843,14.978c20.027,24.968,18.314,61.186-3.985,84.249c-21.924,22.69-40.302,43.492-54.622,61.83
	c-19.135,24.502-28.495,55.012-26.359,85.909c2.153,31.134,15.825,59.863,38.492,80.885c5.356,4.98,11.165,9.451,17.309,13.356
	c-0.486,2.538-0.866,5.1-1.121,7.678h-5.022c-4.725,0-8.557,3.831-8.557,8.557V462.6c0,4.725,3.831,8.557,8.557,8.557h128.473
	v32.287c0,4.725,3.831,8.556,8.557,8.556h61.219c4.725,0,8.557-3.831,8.557-8.556v-32.287H423.63c4.725,0,8.557-3.831,8.557-8.557
	v-90.756c0-4.725-3.831-8.557-8.557-8.557h-5.011c-0.257-2.578-0.638-5.141-1.124-7.683c6.123-3.887,11.927-8.355,17.304-13.345
	c22.674-21.03,36.343-49.757,38.495-80.892C475.429,230.472,466.069,199.964,446.939,175.461z M278.055,494.887h-44.106v-23.73
	h44.106V494.887z M415.074,454.044H286.612H286.6h-61.208c-0.002,0-0.003,0-0.006,0c-0.002,0-0.003,0-0.006,0H96.92v-73.643h33.576
	c4.725,0,8.557-3.831,8.557-8.557s-3.831-8.557-8.557-8.557H110.61c0.408-3.289,1.044-6.542,1.921-9.732
	c8.037-29.357,35.199-51.932,57.966-68.32c9.959-7.171,20.268-13.943,30.238-20.491c18.112-11.896,34.895-22.936,46.711-34.495
	v133.038h-86.147c-4.725,0-8.557,3.831-8.557,8.557s3.831,8.557,8.557,8.557h253.775L415.074,454.044L415.074,454.044z
	 M264.559,363.288V230.252c11.815,11.56,28.597,22.602,46.711,34.5c9.965,6.546,20.271,13.314,30.231,20.488
	c22.81,16.403,50.018,39.01,58.014,68.46c0.854,3.148,1.477,6.352,1.88,9.588H264.559z"/>
<path d="M108.11,408.66c-4.735,0-8.557,3.833-8.557,8.556s3.822,8.557,8.557,8.557c4.723,0,8.557-3.833,8.557-8.557
	C116.667,412.493,112.834,408.66,108.11,408.66z"/>
<g>
</g>
<g>
</g>
<g>
</g>
<g>
</g>
<g>
</g>
<g>
</g>
<g>
</g>
<g>
</g>
<g>
</g>
<g>
</g>
<g>
</g>
<g>
</g>
<g>
</g>
<g>
</g>
<g>
</g>
</svg>
