<?xml version="1.0" encoding="iso-8859-1"?>
<!-- Generator: Adobe Illustrator 19.0.0, SVG Export Plug-In . SVG Version: 6.00 Build 0)  -->
<svg version="1.1" id="Layer_1" xmlns="http://www.w3.org/2000/svg" xmlns:xlink="http://www.w3.org/1999/xlink" x="0px" y="0px"
	 viewBox="0 0 512 512" style="enable-background:new 0 0 512 512;" xml:space="preserve">
<circle style="fill:#CCCCCC;" cx="148.215" cy="109.984" r="26.64"/>
<polygon style="fill:#EFBB6A;" points="368.277,171.097 503.221,321.754 454.499,365.394 443.878,353.53 325.422,221.268 
	319.556,214.726 "/>
<path style="fill:#D88948;" d="M443.878,353.53c-85.59,68.917-198.724,92.634-303.593,66.005
	c-7.252-1.832-14.459-3.915-21.624-6.237l2.77-94.03c7.339-0.861,14.634-1.952,21.907-3.271
	c67.314-12.246,131.171-44.283,182.084-94.728L443.878,353.53z"/>
<polygon style="fill:#F97C64;" points="121.758,308.319 121.431,319.267 118.661,413.297 118.378,422.85 82.502,421.792 
	83.156,399.569 85.457,321.623 85.882,307.262 "/>
<polygon style="fill:#DD6352;" points="120.608,395.771 118.661,419.426 118.378,422.85 82.502,422.47 83.156,414.503 
	85.457,386.561 85.882,381.413 "/>
<path style="fill:#D88948;" d="M85.457,321.623l-2.301,77.946c-22.736-10.261-44.709-23.15-65.504-38.711
	c-0.262-0.196-0.502-0.382-0.752-0.567c-19.225-14.47-6.455-44.938,17.393-41.732C51.304,320.849,68.391,321.852,85.457,321.623z"/>
<g>
	<path style="fill:#C4783F;" d="M124.483,415.125c1.628,0.496,3.257,0.983,4.89,1.455c0.217,0.062,0.434,0.121,0.65,0.183
		c1.601,0.459,3.203,0.908,4.808,1.345c0.047,0.013,0.094,0.024,0.141,0.037c106.347,28.803,221.866,5.466,308.906-64.615
		l-3.555-3.969c-79.901,52.245-178.184,69.193-270.569,47.337c-0.09-0.022-0.183-0.044-0.276-0.065
		c-16.511-3.955-27.964-18.992-27.463-35.963l1.226-41.601l0.098-3.271c-7.273,1.319-14.568,2.41-21.907,3.271l-2.769,93.993
		l-0.001,0.037l0,0l0,0c0.044,0.014,0.086,0.027,0.13,0.04c1.738,0.564,3.48,1.112,5.224,1.648
		C124.171,415.033,124.327,415.078,124.483,415.125z"/>
	<path style="fill:#C4783F;" d="M84.203,364.172l-1.047,35.396c-22.736-10.261-44.709-23.15-65.504-38.711
		c-0.262-0.196-0.502-0.382-0.752-0.567c-18.483-13.903-7.393-42.593,14.667-41.961c0.065,6.543,2.922,13.151,9.323,17.971
		c0.251,0.185,0.491,0.371,0.752,0.567C55.36,347.129,69.58,356.234,84.203,364.172z"/>
</g>
<path d="M509.913,315.538L374.969,164.881c-3.013-3.363-8.184-3.649-11.548-0.636l-26.523,23.751l-153.955-71.872
	c0.449-2.23,0.688-4.535,0.688-6.896c0-19.199-15.62-34.818-34.818-34.818s-34.818,15.62-34.818,34.818
	c0,10.201,4.41,19.393,11.425,25.766L30.136,309.444c-12.189,0.54-22.915,7.931-27.717,19.631
	c-5.502,13.408-1.418,28.273,10.222,37.034l0.712,0.538c12.204,9.133,25.067,17.542,38.231,24.995
	c1.273,0.721,2.657,1.063,4.022,1.063c2.85,0,5.619-1.493,7.124-4.15c2.226-3.93,0.843-8.921-3.087-11.147
	c-12.563-7.113-24.839-15.14-36.477-23.848l-0.748-0.564c-6.836-5.146-6.997-12.523-4.868-17.712
	c2.175-5.299,7.586-10.547,16.251-9.38c14.419,1.941,29.123,2.983,43.833,3.136l-2.708,91.751c-0.133,4.514,3.419,8.282,7.933,8.415
	l35.876,1.058c0.083,0.002,0.164,0.003,0.245,0.003c4.021,0,7.39-2.922,8.049-6.803c32.251,9.38,65.795,14.126,99.424,14.126
	c21.434,0,42.905-1.922,64.084-5.787c55.655-10.155,108.368-33.574,152.957-67.868l5.51,6.152c1.447,1.616,3.476,2.591,5.643,2.711
	c0.152,0.008,0.3,0.012,0.45,0.012c2.009,0,3.953-0.739,5.457-2.087l48.721-43.64C512.643,324.073,512.927,318.902,509.913,315.538z
	 M378.026,266.316l51.027-7.342l-11.134,51.886L378.026,266.316z M332.115,215.053c-0.001-0.001-0.002-0.002-0.003-0.003
	l-0.403-0.45l27.399-24.534l-4.011,50.647L332.115,215.053z M375.519,190.01l47.718,53.275l-52.536,7.559L375.519,190.01z
	 M444.141,266.624l42.71,47.682l-53.98,4.839L444.141,266.624z M148.813,90.767c10.179,0,18.461,8.282,18.461,18.461
	s-8.282,18.461-18.461,18.461s-18.461-8.282-18.461-18.461S138.633,90.767,148.813,90.767z M287.603,415.713
	c-53.177,9.704-108.24,6.567-159.672-9.033l0.875-11.022c0.358-4.503-3.003-8.442-7.506-8.8c-4.498-0.363-8.442,3.003-8.8,7.506
	l-1.454,19.31l-19.528-0.576l2.897-98.181l19.525,0.576l-1.462,54.514c-0.12,4.516,3.443,8.273,7.958,8.393
	c4.501,0.098,8.273-3.443,8.393-7.958l1.192-44.717c52.557-7.234,103.412-26.296,147.495-55.357
	c3.771-2.486,4.813-7.559,2.327-11.33c-2.485-3.772-7.558-4.812-11.33-2.327c-41.298,27.225-88.831,45.256-138.019,52.431l0.04-1.34
	c0.065-2.169-0.735-4.273-2.222-5.854c-1.488-1.579-3.543-2.501-5.711-2.566l-35.876-1.058c-4.522-0.159-8.282,3.419-8.416,7.933
	l-0.19,6.432c-10.115-0.095-20.226-0.631-30.236-1.617l91.885-168.228c2.886,0.777,5.917,1.198,9.046,1.198
	c10.994,0,20.807-5.127,27.193-13.109l147.642,68.924l-8.947,8.012c-1.616,1.448-2.592,3.479-2.71,5.645
	c-0.119,2.167,0.628,4.292,2.076,5.907l0.606,0.677c-7.377,6.979-15.095,13.66-23.029,19.915c-3.547,2.796-4.157,7.939-1.361,11.486
	c1.614,2.048,4.01,3.117,6.429,3.117c1.772,0,3.558-0.574,5.058-1.756c8.203-6.465,16.186-13.366,23.822-20.571l106.962,119.425
	C390.227,384.023,340.299,406.098,287.603,415.713z M455.737,353.085l-16.222-18.112l40.495-3.63L455.737,353.085z"/>
<g>
</g>
<g>
</g>
<g>
</g>
<g>
</g>
<g>
</g>
<g>
</g>
<g>
</g>
<g>
</g>
<g>
</g>
<g>
</g>
<g>
</g>
<g>
</g>
<g>
</g>
<g>
</g>
<g>
</g>
</svg>
