<?xml version="1.0" encoding="iso-8859-1"?>
<!-- Generator: Adobe Illustrator 19.0.0, SVG Export Plug-In . SVG Version: 6.00 Build 0)  -->
<svg xmlns="http://www.w3.org/2000/svg" xmlns:xlink="http://www.w3.org/1999/xlink" version="1.1" id="Layer_1" x="0px" y="0px" viewBox="0 0 512 512" style="enable-background:new 0 0 512 512;" xml:space="preserve" width="512px" height="512px">
<g>
	<g>
		<path d="M491.341,269.84L298.112,76.61l32.014-32.014c1.591-1.59,2.485-3.748,2.485-5.997s-0.893-4.407-2.485-5.997L300.008,2.485    c-3.313-3.313-8.683-3.313-11.995,0L256,34.499L223.986,2.485c-3.311-3.313-8.681-3.314-11.994-0.001l-30.128,30.117    c-1.591,1.59-2.486,3.748-2.486,5.997c0,2.251,0.893,4.407,2.485,5.999l62.141,62.141L56.776,293.959l-18.125-18.132    L215.519,98.96c3.313-3.313,3.313-8.683,0-11.995c-3.311-3.313-8.682-3.313-11.995,0L20.659,269.828    c-3.313,3.311-3.313,8.681-0.001,11.994l30.117,30.128c1.656,1.657,3.827,2.486,5.998,2.486c2.169,0,4.341-0.828,5.996-2.482    l11.907-11.901v21.849c0,4.684,3.798,8.482,8.482,8.482c4.684,0,8.482-3.798,8.482-8.482v-33.85h25.638v153.491H91.64v-92.5    c0-4.684-3.798-8.482-8.482-8.482c-4.684,0-8.482,3.798-8.482,8.482v92.5h-2.771c-4.684,0-8.482,3.798-8.482,8.482v53.494    c0,4.684,3.798,8.482,8.482,8.482h368.178c4.684,0,8.482-3.798,8.482-8.482v-53.494c0-4.684-3.798-8.482-8.482-8.482h-2.771    V300.047l11.905,11.905c1.656,1.657,3.827,2.485,5.997,2.485s4.341-0.828,5.996-2.484l30.128-30.117    c1.591-1.59,2.486-3.748,2.486-5.997C493.826,273.589,492.932,271.431,491.341,269.84z M294.011,20.478l18.121,18.121    l-26.015,26.016l-18.121-18.122L294.011,20.478z M103.644,271.087l25.632-25.638h253.44l25.637,25.638H103.644z M420.349,288.051    v153.491H394.71V288.051H420.349z M321.108,393.337c-4.684,0-8.482,3.798-8.482,8.482v39.723h-13.458v-97.605l13.458-13.463    v46.466c0,4.684,3.798,8.482,8.482,8.482c4.684,0,8.482-3.798,8.482-8.482v-66.948c0-4.684-3.798-8.482-8.482-8.482H190.88    c-4.684,0-8.482,3.798-8.482,8.482v131.551h-48.156V288.051h243.503v153.491H329.59v-39.723    C329.59,397.135,325.793,393.337,321.108,393.337z M224.817,331.943l-13.464-13.469h89.283l-13.464,13.469H224.817z     M282.204,348.907v92.635h-52.419v-92.635H282.204z M212.821,343.937v97.605h-13.458V330.474L212.821,343.937z M431.601,495.036    H80.387v-36.529h351.214V495.036z M455.217,293.96L335.27,174.014c-3.313-3.313-8.683-3.313-11.995,0    c-3.313,3.313-3.313,8.683,0,11.995l42.476,42.476H146.24L256,118.734l50.69,50.69c3.313,3.313,8.683,3.313,11.995,0    c3.313-3.313,3.313-8.683,0-11.995L199.857,38.602l18.131-18.123l255.359,255.359L455.217,293.96z" fill="#FFFFFF"/>
	</g>
</g>
<g>
</g>
<g>
</g>
<g>
</g>
<g>
</g>
<g>
</g>
<g>
</g>
<g>
</g>
<g>
</g>
<g>
</g>
<g>
</g>
<g>
</g>
<g>
</g>
<g>
</g>
<g>
</g>
<g>
</g>
</svg>
