<?xml version="1.0" encoding="iso-8859-1"?>
<!-- Generator: Adobe Illustrator 19.0.0, SVG Export Plug-In . SVG Version: 6.00 Build 0)  -->
<svg version="1.1" id="Layer_1" xmlns="http://www.w3.org/2000/svg" xmlns:xlink="http://www.w3.org/1999/xlink" x="0px" y="0px"
	 viewBox="0 0 512 512" style="enable-background:new 0 0 512 512;" xml:space="preserve">
<path style="fill:#CCCCCC;" d="M430.026,431.592c-85.534,85.534-218.182,95.236-314.402,29.104
	c-12.307-8.453-24.025-18.154-34.963-29.104c-12.043-12.043-22.584-25.022-31.637-38.709c-4.875-7.396-9.329-14.996-13.339-22.776
	c-9.197-17.842-16.089-36.584-20.639-55.758c-19.222-80.696,2.653-169.171,65.615-232.121
	c62.95-62.95,151.426-84.826,232.121-65.615c19.174,4.562,37.916,11.442,55.758,20.651c7.768,3.998,15.38,8.441,22.776,13.327
	c13.675,9.041,26.666,19.583,38.709,31.637c10.938,10.95,20.639,22.656,29.092,34.975
	C525.261,213.41,515.56,346.058,430.026,431.592z"/>
<g>
	<path style="fill:#F2F2F2;" d="M368.54,37.263L35.684,370.107c-9.197-17.842-16.089-36.584-20.639-55.758L312.782,16.612
		C331.957,21.174,350.699,28.054,368.54,37.263z"/>
	<path style="fill:#F2F2F2;" d="M459.117,117.202L115.624,460.696c-12.307-8.453-24.025-18.154-34.963-29.104
		c-12.043-12.043-22.584-25.022-31.637-38.709L391.317,50.59c13.675,9.041,26.666,19.583,38.709,31.637
		C440.964,93.177,450.665,104.883,459.117,117.202z"/>
</g>
<circle style="fill:#D88948;" cx="255.343" cy="256.914" r="200.16"/>
<path style="fill:#CCCCCC;" d="M297.354,330.149c6.327-3.626,12.283-8.14,17.686-13.543s9.917-11.358,13.543-17.686
	c14.912-25.934,14.912-58.087,0-84.021c-3.626-6.327-8.14-12.283-13.543-17.686s-11.37-9.929-17.698-13.543
	c-25.922-14.9-58.075-14.9-84.009-0.012c-6.327,3.626-12.295,8.152-17.698,13.555c-5.403,5.403-9.917,11.358-13.543,17.686
	c-14.912,25.934-14.912,58.087,0,84.021c3.626,6.327,8.14,12.283,13.543,17.686c5.403,5.403,11.358,9.917,17.686,13.543
	C239.267,345.061,271.42,345.061,297.354,330.149z"/>
<path style="fill:#C4783F;" d="M146.217,398.449c-78.169-78.169-78.169-204.908,0-283.077
	c34.959-34.959,79.632-54.269,125.331-57.96c-56.485-4.561-114.536,14.75-157.746,57.96c-78.169,78.169-78.169,204.908,0,283.077
	c43.21,43.21,101.262,62.521,157.746,57.96C225.849,452.72,181.177,433.409,146.217,398.449z"/>
<circle style="fill:#999999;" cx="255.343" cy="256.914" r="45.306"/>
<path style="fill:#808080;" d="M246.76,288.948c-17.693-17.693-17.693-46.38,0-64.073c5.835-5.835,12.87-9.734,20.309-11.72
	c-15.115-4.035-31.907-0.138-43.765,11.72c-17.694,17.693-17.694,46.38,0,64.073c11.858,11.858,28.65,15.756,43.765,11.72
	C259.63,298.681,252.595,294.783,246.76,288.948z"/>
<g>
	<path style="fill:#999999;" d="M411.644,131.838l-0.012,0.012l-83.049,83.049c-3.626-6.327-8.14-12.283-13.543-17.686
		c-5.403-5.403-11.37-9.929-17.698-13.543l83.061-83.061c5.691,4.562,11.19,9.485,16.473,14.768
		C402.159,120.648,407.069,126.147,411.644,131.838z"/>
	<path style="fill:#999999;" d="M130.272,100.609l83.061,83.049c-6.327,3.626-12.295,8.152-17.698,13.555
		s-9.917,11.358-13.543,17.686L99.043,131.85l-0.012-0.012c4.574-5.691,9.497-11.19,14.768-16.461
		C119.082,110.094,124.581,105.172,130.272,100.609z"/>
	<path style="fill:#999999;" d="M213.321,330.149v0.012l-83.049,83.049v0.012c-5.691-4.562-11.19-9.485-16.473-14.768
		c-5.283-5.283-10.194-10.782-14.768-16.473l0.012-0.012l83.049-83.049c3.626,6.327,8.14,12.283,13.543,17.686
		C201.038,322.009,206.993,326.523,213.321,330.149z"/>
	<path style="fill:#999999;" d="M411.632,381.969l0.012,0.012c-4.562,5.691-9.485,11.19-14.768,16.473
		c-5.271,5.271-10.77,10.194-16.461,14.756l-83.061-83.049v-0.012c6.327-3.626,12.283-8.14,17.686-13.543
		s9.917-11.358,13.543-17.686L411.632,381.969z"/>
</g>
<path d="M437.052,75.026C370.558,8.531,273.194-16.147,182.957,10.623c-4.768,1.414-7.486,6.426-6.073,11.194
	c1.414,4.768,6.425,7.487,11.194,6.072C271.979,3,362.498,25.942,424.315,87.76c92.809,92.81,92.809,243.822,0,336.631
	c-92.81,92.81-243.822,92.809-336.632,0c-92.809-92.81-92.809-243.822,0-336.631c20.314-20.314,43.749-36.592,69.652-48.381
	c4.526-2.06,6.526-7.4,4.465-11.926s-7.401-6.527-11.926-4.465c-27.873,12.686-53.082,30.194-74.927,52.039
	c-99.832,99.832-99.832,262.269,0,362.1C124.864,487.042,190.431,512,255.998,512c65.567,0,131.135-24.958,181.051-74.874
	C536.883,337.294,536.883,174.856,437.052,75.026z"/>
<path d="M241.274,203.79c-4.788,1.345-7.58,6.317-6.235,11.105s6.319,7.578,11.105,6.235c12.643-3.551,26.255,0.005,35.527,9.276
	c14.154,14.154,14.154,37.184,0,51.339c-14.154,14.154-37.185,14.153-51.339,0c-12.142-12.142-14.102-31.336-4.659-45.637
	c2.74-4.151,1.598-9.736-2.553-12.476c-4.148-2.74-9.736-1.597-12.476,2.553c-14.135,21.409-11.212,50.131,6.953,68.295
	c10.589,10.587,24.496,15.881,38.404,15.881c13.908,0,27.817-5.294,38.404-15.882c21.176-21.176,21.176-55.632,0-76.808
	C280.534,203.801,260.176,198.482,241.274,203.79z"/>
<path d="M108.093,108.174c-5.427,5.427-10.614,11.209-15.425,17.194c-29.556,36.852-45.834,83.27-45.834,130.706
	s16.277,93.854,45.84,130.714c4.839,6.019,10.027,11.806,15.419,17.199c5.458,5.459,11.249,10.649,17.208,15.426
	c36.858,29.556,83.278,45.834,130.71,45.832c47.434-0.001,93.851-16.283,130.699-45.843c5.96-4.777,11.746-9.964,17.196-15.415
	c5.457-5.458,10.649-11.248,15.425-17.205c29.562-36.852,45.843-83.271,45.843-130.706s-16.281-93.855-45.849-130.713
	c-4.854-6.039-10.045-11.824-15.42-17.186c-5.456-5.456-11.245-10.646-17.205-15.425c-36.845-29.562-83.261-45.844-130.697-45.844
	c-47.434,0-93.852,16.281-130.701,45.842C119.339,97.527,113.549,102.717,108.093,108.174z M130.406,111.98l69.435,69.425
	c-3.487,2.627-6.803,5.498-9.911,8.606c-3.105,3.105-5.972,6.417-8.595,9.899l-69.43-69.43c2.874-3.289,5.851-6.497,8.924-9.572
	C123.913,117.823,127.124,114.846,130.406,111.98z M293.537,190.654c5.733,3.274,11.047,7.342,15.797,12.092
	c4.734,4.734,8.804,10.048,12.104,15.807c13.308,23.145,13.308,51.899-0.006,75.055c-3.293,5.748-7.364,11.062-12.098,15.796
	c-4.734,4.733-10.048,8.804-15.796,12.098l-0.011,0.006c-23.143,13.307-51.903,13.307-75.068-0.007
	c-5.746-3.293-11.06-7.364-15.796-12.098c-4.735-4.735-8.804-10.049-12.104-15.807c-13.308-23.145-13.308-51.899,0.006-75.056
	c3.292-5.745,7.362-11.059,12.098-15.795c4.743-4.741,10.06-8.816,15.813-12.113c11.572-6.643,24.539-9.964,37.511-9.964
	C268.969,180.667,281.956,183.997,293.537,190.654z M64.843,256.074c0-39.974,12.652-79.148,35.788-111.4l71.078,71.078
	c-12.165,25.418-12.164,55.235-0.001,80.643l-71.078,71.077C77.495,335.216,64.843,296.046,64.843,256.074z M111.902,381.67
	l69.432-69.432c2.623,3.483,5.491,6.796,8.594,9.899c3.106,3.106,6.421,5.974,9.907,8.6l-69.437,69.437
	c-3.279-2.864-6.487-5.839-9.572-8.923C117.766,388.19,114.788,384.976,111.902,381.67z M256.01,447.234
	c-39.971,0.001-79.146-12.651-111.409-35.791l71.081-71.081c12.709,6.079,26.514,9.127,40.323,9.127
	c13.806,0,27.609-3.048,40.314-9.126l71.086,71.076C335.148,434.578,295.979,447.233,256.01,447.234z M447.164,256.074
	c0,39.972-12.654,79.142-35.795,111.4l-21.559-21.559c-3.517-3.517-9.219-3.517-12.734,0c-3.517,3.517-3.517,9.217,0,12.734
	l23.024,23.024c-2.866,3.281-5.842,6.492-8.928,9.578c-3.081,3.081-6.288,6.054-9.566,8.917l-69.441-69.431
	c3.486-2.626,6.8-5.494,9.905-8.599c3.104-3.104,5.971-6.417,8.594-9.899l27.201,27.201c1.758,1.759,4.063,2.638,6.367,2.638
	s4.609-0.879,6.367-2.638c3.517-3.517,3.517-9.217,0-12.734l-30.31-30.31c12.164-25.418,12.163-55.233,0-80.642l71.078-71.078
	C434.509,176.931,447.164,216.102,447.164,256.074z M400.096,130.479l-69.432,69.432c-2.625-3.483-5.491-6.796-8.594-9.899
	c-3.111-3.111-6.426-5.98-9.905-8.601l69.429-69.429c3.283,2.867,6.494,5.846,9.585,8.935
	C394.231,123.963,397.207,127.172,400.096,130.479z M367.393,100.711l-71.08,71.08c-25.405-12.152-55.212-12.154-80.626-0.01
	l-71.081-71.07c32.257-23.141,71.425-35.795,111.397-35.795C295.974,64.916,335.14,77.569,367.393,100.711z"/>
<circle cx="399.673" cy="256.074" r="9.005"/>
<circle cx="112.334" cy="256.074" r="9.005"/>
<circle cx="256.004" cy="112.404" r="9.005"/>
<circle cx="256.004" cy="399.744" r="9.005"/>
<g>
</g>
<g>
</g>
<g>
</g>
<g>
</g>
<g>
</g>
<g>
</g>
<g>
</g>
<g>
</g>
<g>
</g>
<g>
</g>
<g>
</g>
<g>
</g>
<g>
</g>
<g>
</g>
<g>
</g>
</svg>
