<?xml version="1.0" encoding="iso-8859-1"?>
<!-- Generator: Adobe Illustrator 19.0.0, SVG Export Plug-In . SVG Version: 6.00 Build 0)  -->
<svg version="1.1" id="Layer_1" xmlns="http://www.w3.org/2000/svg" xmlns:xlink="http://www.w3.org/1999/xlink" x="0px" y="0px"
	 viewBox="0 0 512 512" style="enable-background:new 0 0 512 512;" xml:space="preserve">
<polygon style="fill:#EFBB6A;" points="473.612,378.152 502.119,406.659 483.745,425.017 427.035,481.727 398.537,453.228 "/>
<polygon style="fill:#D89F55;" points="423.249,428.515 451.756,457.023 433.382,475.38 427.035,481.727 398.537,453.228 "/>
<polygon style="fill:#EFBB6A;" points="433.035,284.225 304.617,412.642 276.119,384.144 404.528,255.735 "/>
<polygon style="fill:#D89F55;" points="336.65,380.61 304.617,412.642 276.119,384.144 308.143,352.12 "/>
<path style="fill:#F97C64;" d="M445.396,463.365l38.351-38.351c10.598,10.598,10.598,27.765,0,38.351
	C473.161,473.95,455.994,473.95,445.396,463.365z"/>
<polygon style="fill:#D88948;" points="391.622,325.632 458.88,392.89 413.284,438.485 346.026,371.24 "/>
<polygon style="fill:#C4783F;" points="363.433,353.822 430.691,421.08 413.284,438.485 346.026,371.24 "/>
<polygon style="fill:#E6E6E6;" points="52.382,31.993 70.053,132.874 160.803,223.624 172.26,235.081 207.05,269.87 298.72,361.541 
	381.943,278.319 153.275,49.652 "/>
<g>
	<polygon style="fill:#FFFFFF;" points="172.26,235.081 207.05,269.87 373.494,269.87 338.704,235.081 	"/>
	<polygon style="fill:#FFFFFF;" points="109.227,172.047 160.803,223.624 327.247,223.624 275.671,172.047 	"/>
</g>
<polygon style="fill:#B3B3B3;" points="52.382,31.993 153.275,49.652 381.943,278.319 340.325,319.936 "/>
<polygon style="fill:#EFBB6A;" points="112.107,453.22 83.598,481.728 65.242,463.354 8.532,406.643 37.03,378.145 "/>
<polygon style="fill:#D89F55;" points="61.742,402.857 33.235,431.364 14.879,412.991 8.532,406.643 37.03,378.145 "/>
<polygon style="fill:#EFBB6A;" points="206.033,412.643 77.616,284.226 106.114,255.727 234.523,384.136 "/>
<polygon style="fill:#D89F55;" points="109.648,316.258 77.616,284.226 106.114,255.727 138.139,287.751 "/>
<path style="fill:#F97C64;" d="M26.893,425.004l38.351,38.351c-10.598,10.598-27.765,10.598-38.351,0
	C16.307,452.77,16.307,435.602,26.893,425.004z"/>
<polygon style="fill:#D88948;" points="164.626,371.23 97.368,438.488 51.772,392.892 119.018,325.634 "/>
<polygon style="fill:#C4783F;" points="136.437,343.041 69.179,410.299 51.772,392.892 119.018,325.634 "/>
<polygon style="fill:#E6E6E6;" points="458.267,31.993 440.596,132.874 349.846,223.624 338.389,235.081 303.599,269.87 
	211.929,361.541 128.707,278.319 357.374,49.652 "/>
<g>
	<polygon style="fill:#FFFFFF;" points="338.389,235.081 303.599,269.87 137.155,269.87 171.945,235.081 	"/>
	<polygon style="fill:#FFFFFF;" points="401.422,172.047 349.846,223.624 183.402,223.624 234.978,172.047 	"/>
</g>
<polygon style="fill:#B3B3B3;" points="458.267,31.993 357.374,49.652 128.707,278.319 170.324,319.936 "/>
<path d="M509.303,399.281l-28.498-28.498c-1.728-1.728-4.07-2.698-6.513-2.698s-4.784,0.97-6.513,2.698l-8.225,8.225l-54.231-54.231
	l34.897-34.897c3.597-3.597,3.597-9.427,0-13.024l-28.498-28.498c-3.597-3.596-9.427-3.597-13.025,0l-16.088,16.088l-14.241-14.241
	c-3.597-3.596-9.427-3.597-13.025,0c-3.597,3.597-3.597,9.429,0,13.025l14.241,14.242l-12.264,12.264
	c-3.597,3.597-3.597,9.427,0,13.024c3.597,3.596,9.427,3.597,13.025,0l34.866-34.866l15.474,15.473L305.29,398.759l-15.474-15.474
	l57.695-57.695c3.597-3.597,3.597-9.427,0-13.024c-3.599-3.598-9.43-3.597-13.025,0l-35.089,35.089l-30.367-30.369L447.786,138.53
	c1.339-1.339,2.231-3.058,2.559-4.923l17.671-100.881c0.518-2.956-0.437-5.979-2.559-8.101c-2.123-2.122-5.147-3.077-8.101-2.56
	L356.463,39.724c-1.867,0.327-3.586,1.221-4.926,2.559l-95.545,95.545l-95.54-95.539c-1.339-1.34-3.058-2.233-4.923-2.559
	L54.648,22.059c-2.952-0.518-5.979,0.436-8.101,2.559c-2.122,2.122-3.077,5.145-2.559,8.101L61.659,133.6
	c0.327,1.865,1.221,3.585,2.559,4.923l82.086,82.086c1.798,1.799,4.156,2.698,6.512,2.698s4.714-0.899,6.512-2.698
	c3.597-3.597,3.597-9.427,0-13.024L79.3,127.555L64.395,42.469l85.09,14.906l93.482,93.482L129.383,264.441L113.3,248.358
	c-3.597-3.597-9.429-3.597-13.024,0L71.774,276.86c-3.597,3.597-3.597,9.427,0,13.024l34.897,34.895l-54.223,54.232l-8.236-8.236
	c-1.728-1.727-4.07-2.698-6.513-2.698c-2.443,0-4.786,0.971-6.513,2.699l-28.49,28.502c-3.596,3.597-3.594,9.427,0.001,13.023
	l12.687,12.689c-8.126,13.915-6.237,32.112,5.668,44.017c6.86,6.867,15.983,10.649,25.686,10.649c6.551,0,12.835-1.729,18.341-4.962
	l12.683,12.685c1.727,1.728,4.07,2.699,6.513,2.699h0.001c2.443,0,4.786-0.97,6.512-2.698l28.502-28.502
	c3.597-3.597,3.597-9.427,0-13.024l-8.224-8.224l36.818-36.818c3.597-3.597,3.597-9.427,0-13.024c-3.596-3.597-9.427-3.597-13.024,0
	l-36.817,36.82l-32.572-32.572l54.224-54.234l80.501,80.493c1.728,1.728,4.07,2.698,6.513,2.698c2.443,0,4.786-0.971,6.513-2.699
	l28.49-28.502c3.596-3.597,3.596-9.427-0.001-13.023l-16.083-16.083l30.373-30.374l30.367,30.369l-16.093,16.093
	c-3.597,3.597-3.597,9.427,0,13.024l28.498,28.498c1.728,1.727,4.07,2.698,6.513,2.698c2.444,0,4.784-0.97,6.513-2.698
	l34.896-34.896l54.23,54.231l-8.226,8.226c-3.597,3.597-3.597,9.427,0,13.024l28.498,28.498c1.728,1.727,4.07,2.698,6.513,2.698
	c2.444,0,4.784-0.97,6.513-2.698l12.684-12.684c5.505,3.231,11.789,4.96,18.342,4.96c9.702,0,18.825-3.779,25.685-10.639
	c6.862-6.861,10.641-15.984,10.641-25.686c0-6.551-1.729-12.836-4.961-18.34l12.685-12.685
	C512.9,408.71,512.9,402.878,509.303,399.281z M46.74,461.239c-4.781,0-9.275-1.864-12.658-5.251
	c-4.595-4.595-6.142-11.086-4.686-16.982l21.682,21.685C49.673,461.039,48.223,461.239,46.74,461.239z M91.533,444.145l8.224,8.224
	l-15.475,15.475L22.235,405.79l15.468-15.474l8.235,8.235l0,0L91.533,444.145z M206.71,398.758L91.311,283.372l15.478-15.477
	l115.388,115.388L206.71,398.758z M184.021,319.078l92.636-92.636c3.597-3.597,3.597-9.429,0-13.024
	c-3.598-3.597-9.429-3.597-13.025,0l-92.635,92.636l-28.588-28.588L362.504,57.368l85.103-14.894l-14.906,85.091L212.605,347.662
	L184.021,319.078z M359.724,370.377l32.573-32.573l54.231,54.231l-32.573,32.573L359.724,370.377z M427.715,467.845l-15.474-15.474
	l8.224-8.224c0.001-0.001,0.002-0.001,0.002-0.002l45.598-45.597c0.002-0.004,0.006-0.006,0.009-0.01l8.217-8.217l15.474,15.473
	L427.715,467.845z M483.158,443.332c0,4.783-1.863,9.279-5.245,12.662c-3.382,3.382-7.878,5.245-12.661,5.245
	c-1.482,0-2.931-0.199-4.335-0.548l21.693-21.693C482.96,440.401,483.158,441.849,483.158,443.332z"/>
<path d="M292.967,206.316c2.357,0,4.714-0.899,6.513-2.698l11.648-11.648c3.597-3.597,3.597-9.429,0-13.025
	c-3.597-3.596-9.427-3.597-13.025,0l-11.648,11.648c-3.597,3.597-3.597,9.429,0,13.025
	C288.254,205.416,290.61,206.316,292.967,206.316z"/>
<path d="M327.334,171.949c2.357,0,4.714-0.899,6.513-2.698l54.646-54.646c3.597-3.597,3.597-9.427,0-13.024
	c-3.598-3.597-9.429-3.597-13.025,0l-54.646,54.646c-3.597,3.597-3.597,9.427,0,13.024
	C322.62,171.05,324.978,171.949,327.334,171.949z"/>
<path d="M197.177,162.226L125.992,91.04c-3.597-3.597-9.429-3.597-13.024,0c-3.597,3.597-3.597,9.427,0,13.024l71.185,71.186
	c1.798,1.799,4.156,2.698,6.512,2.698c2.357,0,4.714-0.899,6.512-2.698C200.773,171.654,200.773,165.823,197.177,162.226z"/>
<g>
</g>
<g>
</g>
<g>
</g>
<g>
</g>
<g>
</g>
<g>
</g>
<g>
</g>
<g>
</g>
<g>
</g>
<g>
</g>
<g>
</g>
<g>
</g>
<g>
</g>
<g>
</g>
<g>
</g>
</svg>
