<?xml version="1.0" encoding="iso-8859-1"?>
<!-- Generator: Adobe Illustrator 19.0.0, SVG Export Plug-In . SVG Version: 6.00 Build 0)  -->
<svg version="1.1" id="Layer_1" xmlns="http://www.w3.org/2000/svg" xmlns:xlink="http://www.w3.org/1999/xlink" x="0px" y="0px"
	 viewBox="0 0 512.002 512.002" style="enable-background:new 0 0 512.002 512.002;" xml:space="preserve">
<path style="fill:#D6977F;" d="M364.438,216.283c17.734,0,32.11,14.376,32.11,32.11s-14.376,32.11-32.11,32.11H146.365
	c-17.734,0-32.11-14.376-32.11-32.11s14.376-32.11,32.11-32.11"/>
<polyline style="fill:#F7BFA6;" points="364.438,331.747 364.438,208.26 146.365,208.26 146.365,331.747 "/>
<polyline style="fill:#D6977F;" points="168.171,331.747 168.171,208.26 146.365,208.26 146.365,331.747 "/>
<path style="fill:#E6E6E6;" d="M428.774,8.937v62.515c0,32.68-26.487,59.178-59.178,59.178h-10.283l-0.523,0.164
	c-5.932-18.439-16.662-34.719-30.718-47.379l0.731-0.807h26.301C395.799,82.607,428.774,49.632,428.774,8.937z"/>
<path style="fill:#EFBB6A;" d="M358.79,130.793c-5.932-18.439-16.662-34.719-30.718-47.379
	c-13.74-12.376-30.663-21.296-49.386-25.396h-46.572c-18.734,4.1-35.646,13.02-49.386,25.396
	c-14.056,12.66-24.786,28.94-30.718,47.379c-2.377,7.404-3.991,15.157-4.732,23.161h131.408h15.975h68.872
	C362.792,145.95,361.178,138.197,358.79,130.793z"/>
<path style="fill:#D89F55;" d="M232.114,58.018h8.222c-12.126,4.1-23.063,13.02-31.95,25.396
	c-9.105,12.66-16.04,28.94-19.879,47.379c-1.538,7.404-2.584,15.157-3.064,23.161h-38.165c0.741-8.004,2.355-15.757,4.732-23.161
	c5.932-18.439,16.662-34.719,30.718-47.379C196.468,71.038,213.38,62.118,232.114,58.018z"/>
<polygon style="fill:#CCCCCC;" points="363.533,153.954 375.397,153.954 375.397,208.258 135.403,208.258 135.403,153.954 
	147.278,153.954 232.114,153.954 278.687,153.954 "/>
<polygon style="fill:#B3B3B3;" points="191.428,153.954 194.341,153.954 194.341,208.258 135.403,208.258 135.403,153.954 
	138.319,153.954 159.153,153.954 170.591,153.954 "/>
<polygon style="fill:#CCCCCC;" points="232.114,58.018 232.114,43.471 278.687,43.471 278.687,58.018 278.687,153.954 
	232.114,153.954 "/>
<polygon style="fill:#B3B3B3;" points="232.114,58.018 232.114,43.471 248.863,43.471 248.863,58.018 248.863,153.954 
	232.114,153.954 "/>
<path style="fill:#E6E6E6;" d="M182.728,83.414c-9.836,8.854-18.036,19.475-24.11,31.383c-2.606,5.114-4.82,10.457-6.608,15.997
	l-0.523-0.164h-10.272c-32.691,0-59.189-26.498-59.189-59.178V8.937c0,0.545,0.011,1.08,0.022,1.625
	c0,0.284,0.011,0.556,0.022,0.829c0.011,0.447,0.033,0.894,0.055,1.341c0.033,0.578,0.065,1.167,0.109,1.745
	c0.033,0.403,0.065,0.796,0.098,1.189c0.033,0.425,0.076,0.851,0.131,1.276c0,0.033,0,0.055,0.011,0.076
	c0.044,0.513,0.109,1.014,0.174,1.527c0.207,1.592,0.469,3.173,0.774,4.722c0.076,0.414,0.164,0.818,0.251,1.232
	c0.273,1.254,0.567,2.497,0.905,3.718c0.087,0.349,0.185,0.709,0.294,1.058c1.439,5.005,3.391,9.792,5.79,14.307
	c0.218,0.414,0.447,0.829,0.676,1.232c0.284,0.502,0.567,1.003,0.851,1.494c0.229,0.382,0.447,0.752,0.687,1.123
	c1.189,1.952,2.475,3.849,3.838,5.67c0.338,0.447,0.676,0.883,1.025,1.33c13.489,17.153,34.436,28.177,57.968,28.177h26.29
	L182.728,83.414z"/>
<g>
	<path style="fill:#CCCCCC;" d="M158.619,114.797c-2.606,5.114-4.82,10.457-6.608,15.997l-0.523-0.164h-10.272
		c-32.691,0-59.189-26.498-59.189-59.178V8.937c0,0.545,0.011,1.08,0.022,1.625c0,0.273,0.011,0.556,0.022,0.829
		c0.011,0.447,0.033,0.894,0.055,1.341c0.033,0.589,0.065,1.167,0.109,1.745c0.033,0.403,0.065,0.796,0.098,1.189
		c0.033,0.425,0.076,0.851,0.131,1.276c0,0.033,0,0.055,0.011,0.076c0.044,0.513,0.109,1.014,0.174,1.527
		c0.207,1.592,0.469,3.173,0.774,4.722c0.076,0.414,0.164,0.818,0.251,1.232c0.273,1.254,0.567,2.497,0.905,3.718
		c0.098,0.349,0.196,0.709,0.294,1.058c1.439,5.005,3.391,9.792,5.79,14.307c0.218,0.414,0.447,0.829,0.676,1.232
		c0.284,0.502,0.567,1.003,0.851,1.494c0.229,0.382,0.458,0.752,0.687,1.123c1.189,1.952,2.475,3.849,3.838,5.67
		c0.338,0.447,0.676,0.894,1.025,1.33c0.109,0.142,0.218,0.294,0.338,0.436v0.643c0,32.746,26.541,59.287,59.298,59.287H158.619z"/>
	<path style="fill:#CCCCCC;" d="M367.902,81.498c0,0-13.423,34.789,21.594,45.7l-30.706,3.596l-29.987-48.186L367.902,81.498z"/>
</g>
<path style="fill:#D88948;" d="M319.183,438.956l-63.781,28.287l-63.781-28.287c-27.516-12.203-45.255-39.477-45.255-69.577v-48.396
	c0-32.901,26.672-59.573,59.573-59.573h98.928c32.901,0,59.573,26.672,59.573,59.573v48.396
	C364.438,399.479,346.699,426.752,319.183,438.956z"/>
<path style="fill:#C4783F;" d="M180.159,369.379v-48.396c0-32.901,18.405-59.573,41.109-59.573h-15.33
	c-32.901,0-59.573,26.672-59.573,59.573v48.396c0,30.1,17.739,57.374,45.255,69.577l63.781,28.287l-44.014-28.287
	C192.4,426.752,180.159,399.479,180.159,369.379z"/>
<g>
	<path style="fill:#D6977F;" d="M282.813,307.726h-54.821c-14.182,0-25.68,11.498-25.68,25.68l0,0
		c0,13.527,10.461,24.602,23.732,25.599l0,0c0-10.141,8.221-18.362,18.362-18.362H266.4c10.141,0,18.362,8.221,18.362,18.362l0,0
		c13.272-0.997,23.732-12.072,23.732-25.599l0,0C308.493,319.223,296.995,307.726,282.813,307.726z"/>
	<rect x="240.125" y="208.262" style="fill:#D6977F;" width="30.554" height="53.15"/>
</g>
<path d="M429.375,0c-4.518,0-8.178,3.662-8.178,8.178c0,36.112-29.38,65.492-65.493,65.492h-24.927
	c-12.678-10.574-27.476-18.352-43.312-22.786v-8.172c0-4.517-3.661-8.178-8.178-8.178h-46.572c-4.518,0-8.178,3.662-8.178,8.178
	v8.172c-15.833,4.432-30.63,12.211-43.312,22.787h-24.915c-36.119,0-65.502-29.38-65.502-65.492c0-4.517-3.661-8.178-8.178-8.178
	c-4.518,0-8.178,3.662-8.178,8.178v62.515c0,37.14,30.221,67.356,67.367,67.356h0.178c-0.51,2.31-0.951,4.633-1.319,6.968h-4.67
	c-4.518,0-8.178,3.662-8.178,8.178V207.5c0,1.503,0.412,2.907,1.12,4.117c-13.19,6.627-22.268,20.278-22.268,36.017
	c0,19.413,13.803,35.663,32.11,39.452v81.534c0,33.305,19.673,63.552,50.118,77.053l58.918,26.131v4.759h-5.411
	c-4.518,0-8.178,3.662-8.178,8.178c0,4.517,3.661,8.178,8.178,8.178h5.411v10.903c0,4.517,3.661,8.178,8.178,8.178
	c4.518,0,8.178-3.662,8.178-8.178v-10.903h4.946c4.518,0,8.178-3.662,8.178-8.178c0-4.517-3.661-8.178-8.178-8.178h-4.946v-4.759
	l32.995-14.634c4.128-1.831,5.991-6.663,4.159-10.792c-1.831-4.128-6.664-5.992-10.791-4.16l-34.542,15.32l-60.465-26.817
	c-24.538-10.883-40.393-35.258-40.393-62.101v-48.397c0-28.339,23.056-51.394,51.394-51.394h98.928
	c28.338,0,51.394,23.055,51.394,51.394v48.397c0,26.842-15.855,51.219-40.393,62.101c-4.128,1.831-5.991,6.663-4.159,10.792
	c1.83,4.128,6.661,5.991,10.791,4.16c30.445-13.503,50.118-43.748,50.118-77.053v-81.534c18.307-3.79,32.11-20.039,32.11-39.452
	c0-15.74-9.079-29.393-22.271-36.019c0.707-1.21,1.119-2.613,1.119-4.115v-54.304c0-4.517-3.661-8.178-8.178-8.178h-4.661
	c-0.37-2.337-0.81-4.661-1.321-6.968h0.18c37.141,0,67.357-30.216,67.357-67.356V8.178C437.553,3.662,433.892,0,429.375,0z
	 M90.806,70.693V57.215c14.947,19.908,38.746,32.811,65.502,32.811h8.816c-7.697,9.53-13.858,20.221-18.231,31.666h-5.078
	C113.688,121.693,90.806,98.814,90.806,70.693z M160.396,132.539c5.4-16.785,15.223-31.933,28.406-43.808
	c10.375-9.345,22.58-16.412,35.735-20.759v77.045h-28.504c-4.518,0-8.178,3.662-8.178,8.178s3.661,8.178,8.178,8.178H367.82v37.947
	H144.182v-37.947h27.01c4.518,0,8.178-3.662,8.178-8.178s-3.661-8.178-8.178-8.178h-13.927
	C158.043,140.796,159.085,136.622,160.396,132.539z M123.034,247.634c0-10.325,6.573-19.143,15.754-22.491v44.983
	C129.608,266.776,123.034,257.958,123.034,247.634z M155.145,276.152v-60.473h77.399v36.792h-26.006
	C185.999,252.472,167.58,261.671,155.145,276.152z M248.901,252.472V215.68h14.203v36.792H248.901z M305.467,252.472h-26.006V215.68
	h77.399v60.473C344.426,261.671,326.006,252.472,305.467,252.472z M373.218,270.125v-44.983c9.18,3.349,15.754,12.167,15.754,22.491
	C388.971,257.958,382.398,266.776,373.218,270.125z M240.892,145.017V50.891h30.216v73.463c0,4.517,3.661,8.178,8.178,8.178
	c4.518,0,8.178-3.662,8.178-8.178V67.977c13.157,4.349,25.362,11.412,35.735,20.755c13.184,11.874,23.007,27.022,28.408,43.814
	c1.315,4.076,2.36,8.248,3.139,12.471H240.892z M421.197,70.693c0,28.121-22.878,51-51.001,51h-5.089
	c-4.372-11.444-10.533-22.136-18.231-31.666h8.828c26.753,0,50.547-12.9,65.493-32.808L421.197,70.693L421.197,70.693z"/>
<circle cx="327.36" cy="180.347" r="8.178"/>
<circle cx="298.813" cy="180.347" r="8.178"/>
<path d="M355.9,188.525c4.514,0,8.189-3.664,8.189-8.178s-3.675-8.178-8.189-8.178c-4.514,0-8.178,3.664-8.178,8.178
	S351.386,188.525,355.9,188.525z"/>
<path d="M270.269,188.525c4.524,0,8.178-3.664,8.178-8.178s-3.654-8.178-8.178-8.178c-4.516,0-8.167,3.664-8.167,8.178
	C262.101,184.862,265.754,188.525,270.269,188.525z"/>
<path d="M156.1,172.169c-4.514,0-8.178,3.664-8.178,8.178s3.664,8.178,8.178,8.178s8.189-3.664,8.189-8.178
	S160.614,172.169,156.1,172.169z"/>
<circle cx="241.728" cy="180.347" r="8.178"/>
<circle cx="213.181" cy="180.347" r="8.178"/>
<path d="M176.458,180.347c0,4.514,3.664,8.178,8.178,8.178s8.189-3.664,8.189-8.178s-3.675-8.178-8.189-8.178
	S176.458,175.833,176.458,180.347z"/>
<path d="M283.413,298.789h-54.821c-18.669,0-33.858,15.189-33.858,33.858c0,17.609,13.747,32.436,31.298,33.754
	c2.274,0.172,4.507-0.613,6.174-2.16c1.668-1.547,2.616-3.721,2.616-5.995c0-5.615,4.568-10.184,10.184-10.184h21.993
	c5.615,0,10.184,4.568,10.184,10.184c0,2.276,0.948,4.448,2.616,5.995c1.518,1.408,3.507,2.183,5.562,2.183
	c0.204,0,0.408-0.008,0.613-0.023c17.551-1.317,31.298-16.144,31.298-33.754C317.271,313.978,302.082,298.789,283.413,298.789z
	 M291.537,348.133c-3.984-9.632-13.482-16.427-24.538-16.427h-21.993c-11.056,0-20.554,6.796-24.538,16.427
	c-5.583-2.95-9.378-8.834-9.378-15.486c0-9.65,7.851-17.501,17.501-17.501h54.821c9.65,0,17.501,7.851,17.501,17.501
	C300.914,339.299,297.12,345.183,291.537,348.133z"/>
<path d="M208.847,226.559l-24.353-7.377c-4.318-1.309-8.888,1.133-10.198,5.457c-1.31,4.322,1.133,8.888,5.457,10.198l8.018,2.428
	c-0.365,0.927-0.572,1.934-0.572,2.991c0,4.517,3.662,8.178,8.178,8.178c3.921,0,7.195-2.761,7.991-6.444l0.738,0.224
	c0.791,0.239,1.588,0.353,2.374,0.353c3.509,0,6.753-2.277,7.824-5.81C215.614,232.434,213.17,227.868,208.847,226.559z"/>
<path d="M327.512,219.182l-24.354,7.377c-4.324,1.31-6.766,5.875-5.457,10.198c1.07,3.533,4.314,5.81,7.824,5.81
	c0.785,0,1.583-0.113,2.374-0.353l0.745-0.226c0.795,3.685,4.068,6.447,7.991,6.447c4.517,0,8.178-3.662,8.178-8.178
	c0-1.058-0.207-2.064-0.572-2.992l8.013-2.427c4.324-1.31,6.766-5.875,5.457-10.198
	C336.399,220.316,331.835,217.871,327.512,219.182z"/>
<g>
</g>
<g>
</g>
<g>
</g>
<g>
</g>
<g>
</g>
<g>
</g>
<g>
</g>
<g>
</g>
<g>
</g>
<g>
</g>
<g>
</g>
<g>
</g>
<g>
</g>
<g>
</g>
<g>
</g>
</svg>
