<?xml version="1.0" encoding="iso-8859-1"?>
<!-- Generator: Adobe Illustrator 19.0.0, SVG Export Plug-In . SVG Version: 6.00 Build 0)  -->
<svg version="1.1" id="Layer_1" xmlns="http://www.w3.org/2000/svg" xmlns:xlink="http://www.w3.org/1999/xlink" x="0px" y="0px"
	 viewBox="0 0 512 512" style="enable-background:new 0 0 512 512;" xml:space="preserve">
<path style="fill:#D88948;" d="M502.44,277.419v11.703c0-10.333-8.374-18.696-18.707-18.696c-10.459,0-18.707,8.524-18.707,18.673
	c0,0.841,0.058,1.693,0.173,2.546l12.314,90.541c5.472,40.236-25.814,76.049-66.419,76.049H93.199
	c-30.445,0-55.131-24.686-55.131-55.131v-77.927h0.012c0,27.162,22.013,49.175,49.164,49.175c0,0,326.626-14.192,324.955-19.387
	c0.104-0.046,0.219-0.104,0.323-0.161c18.246-9.019,27.807-29.501,23.154-49.314l-14.445-61.501h1.728
	c14.307,0,25.918-11.6,25.918-25.918l29.132,16.922C493.133,243.772,502.44,259.933,502.44,277.419z"/>
<path style="fill:#C4783F;" d="M445.651,437.501H127.757c-30.445,0-55.131-24.686-55.131-55.131v-10.228
	c-20.013-6.225-34.546-24.895-34.546-46.965h-0.012v77.927c0,30.445,24.686,55.131,55.131,55.131h317.894
	c20.121,0,37.944-8.801,50.15-22.568C456.25,436.854,451.035,437.501,445.651,437.501z"/>
<path style="fill:#F2F2F2;" d="M133.015,46.786c63.586,0,115.133,51.547,115.133,115.133s-51.547,115.133-115.133,115.133h148.491
	c63.586,0,115.133-51.547,115.133-115.133S345.092,46.786,281.506,46.786C281.506,46.786,133.015,46.786,133.015,46.786z"/>
<g>
	<path style="fill:#F97C64;" d="M257.316,46.786h-33.406c63.586,0,115.133,51.547,115.133,115.133s-51.547,115.133-115.133,115.133
		h33.406c63.586,0,115.133-51.547,115.133-115.133S320.902,46.786,257.316,46.786z"/>
	<path style="fill:#F97C64;" d="M196.265,46.786h-33.406c63.586,0,115.133,51.547,115.133,115.133s-51.547,115.133-115.133,115.133
		h33.406c63.586,0,115.133-51.547,115.133-115.133S259.85,46.786,196.265,46.786z"/>
</g>
<g>
	<path style="fill:#F2F2F2;" d="M145.819,348.757c12.51,0,22.681,10.183,22.681,22.693c0,12.51-10.171,22.681-22.681,22.681
		c-12.51,0-22.693-10.171-22.693-22.681S133.309,348.757,145.819,348.757z"/>
	<path style="fill:#F2F2F2;" d="M360.985,348.757c12.51,0,22.681,10.183,22.681,22.693c0,12.51-10.171,22.681-22.681,22.681
		c-12.51,0-22.693-10.171-22.693-22.681C338.292,358.94,348.475,348.757,360.985,348.757z"/>
	<path style="fill:#F2F2F2;" d="M253.396,317.656c29.708,0,53.794,24.087,53.794,53.794s-24.087,53.783-53.794,53.783
		s-53.794-24.075-53.794-53.783C199.602,341.742,223.688,317.656,253.396,317.656z M276.089,371.45
		c0-12.51-10.183-22.693-22.693-22.693c-12.51,0-22.693,10.183-22.693,22.693c0,12.51,10.183,22.681,22.693,22.681
		C265.906,394.131,276.089,383.96,276.089,371.45z"/>
</g>
<g>
	<path style="fill:#F97C64;" d="M412.199,354.966c1.67,5.195,2.569,10.736,2.569,16.484c0,29.708-24.075,53.783-53.783,53.783
		s-53.794-24.075-53.794-53.783s24.087-53.794,53.794-53.794C384.945,317.656,405.242,333.322,412.199,354.966z M383.666,371.45
		c0-12.51-10.171-22.693-22.681-22.693c-12.51,0-22.693,10.183-22.693,22.693c0,12.51,10.183,22.681,22.693,22.681
		S383.666,383.96,383.666,371.45z"/>
	<path style="fill:#F97C64;" d="M253.396,348.757c12.51,0,22.693,10.183,22.693,22.693c0,12.51-10.183,22.681-22.693,22.681
		c-12.51,0-22.693-10.171-22.693-22.681S240.886,348.757,253.396,348.757z"/>
	<path style="fill:#F97C64;" d="M145.819,317.656c29.708,0,53.783,24.087,53.783,53.794s-24.075,53.783-53.783,53.783
		c-28.729,0-52.205-22.52-53.714-50.88c-0.058-0.956-0.081-1.924-0.081-2.903C92.024,341.742,116.111,317.656,145.819,317.656z
		 M168.5,371.45c0-12.51-10.171-22.693-22.681-22.693c-12.51,0-22.693,10.183-22.693,22.693c0,12.51,10.183,22.681,22.693,22.681
		C158.329,394.131,168.5,383.96,168.5,371.45z"/>
</g>
<path d="M482.981,226.722l-29.132-16.922c-2.67-1.553-5.969-1.56-8.649-0.017c-2.678,1.541-4.33,4.397-4.33,7.487
	c0,9.527-7.751,17.279-17.279,17.279h-1.728c-2.639,0-5.133,1.206-6.772,3.274c-1.638,2.068-2.242,4.772-1.639,7.341l14.445,61.501
	c3.069,13.065-1.427,26.286-11.141,34.67c-10.675-20.173-31.659-33.121-55.138-33.121c-22.886,0-42.925,12.387-53.794,30.8
	c-9.478-16.055-25.926-27.515-45.156-30.189v-23.937h19.472c68.249,0,123.772-55.523,123.772-123.772S350.39,37.345,282.141,37.345
	h-19.472V8.639c0-4.771-3.867-8.639-8.639-8.639c-4.772,0-8.639,3.868-8.639,8.639v28.706H133.651c-4.772,0-8.639,3.868-8.639,8.639
	s3.867,8.639,8.639,8.639c58.721,0,106.493,47.773,106.493,106.493s-47.773,106.493-106.493,106.493
	c-4.772,0-8.639,3.868-8.639,8.639c0,4.771,3.867,8.639,8.639,8.639H245.39v23.937c-19.222,2.674-35.664,14.125-45.144,30.17
	c-1.713-2.914-3.657-5.703-5.841-8.321c-3.057-3.665-8.507-4.156-12.168-1.1c-3.665,3.056-4.157,8.505-1.101,12.168
	c6.746,8.086,10.461,18.352,10.461,28.906c0,24.892-20.251,45.144-45.142,45.144c-24.008,0-43.813-18.755-45.092-42.758
	c-0.043-0.721-0.065-1.502-0.065-2.386c0-24.899,20.256-45.155,45.155-45.155c3.826,0,7.625,0.478,11.291,1.421
	c4.616,1.19,9.331-1.594,10.519-6.215c1.189-4.62-1.594-9.331-6.216-10.519c-5.07-1.305-10.318-1.966-15.595-1.966
	c-32.434,0-59.162,24.864-62.147,56.53c-20.678-1.815-36.952-19.222-36.952-40.369c0-0.039-0.009-0.061-0.012-0.096v-20.132
	c0-12.971-10.552-23.522-23.522-23.522c-6.27,0-12.175,2.44-16.638,6.885c-4.446,4.448-6.895,10.356-6.895,16.637v10.241
	c0,4.771,3.867,8.639,8.639,8.639s8.639-3.868,8.639-8.639v-10.241c0-1.667,0.652-3.236,1.822-4.406
	c1.189-1.184,2.763-1.836,4.434-1.836c3.442,0,6.243,2.8,6.243,6.243v98.155c0,35.163,28.607,63.77,63.769,63.77h54.025
	l-20.291,32.734c-2.513,4.056-1.264,9.381,2.792,11.895c1.417,0.879,2.99,1.297,4.543,1.297c2.891,0,5.716-1.451,7.352-4.089
	l25.934-41.838h92.79l-20.291,32.734c-2.513,4.056-1.264,9.381,2.792,11.895c1.417,0.879,2.99,1.297,4.543,1.297
	c2.891,0,5.716-1.451,7.352-4.089l25.934-41.838h130.42c21.853,0,42.629-9.44,57-25.899c14.37-16.455,20.922-38.308,17.978-59.953
	l-1.001-7.369c-0.642-4.729-4.999-8.039-9.723-7.398c-4.727,0.643-8.039,4.996-7.398,9.723l1.001,7.369
	c2.272,16.703-2.785,33.563-13.872,46.261c-11.091,12.701-27.123,19.986-43.986,19.986H292.019l22.841-36.849
	c11.448,12.942,28.162,21.124,46.76,21.124c34.419,0,62.421-28.003,62.421-62.422c0-4.146-0.408-8.251-1.208-12.271
	c18.072-11.997,26.98-33.979,21.888-55.663l-12.225-52.048c10.357-2.763,18.817-10.232,22.938-19.964l18.873,10.963
	c8.024,4.656,14.084,11.898,17.366,20.312c-2.327-0.645-4.776-0.991-7.305-0.991c-15.08,0-27.346,12.252-27.346,27.312
	c0,1.231,0.084,2.479,0.252,3.71l7.713,56.717c0.643,4.729,4.996,8.038,9.724,7.396c4.727-0.643,8.039-4.997,7.396-9.724
	l-7.713-56.716c-0.063-0.461-0.094-0.926-0.094-1.382c0-5.533,4.517-10.033,10.068-10.033s10.068,4.511,10.068,10.056
	c0,4.771,3.867,8.639,8.639,8.639c4.772,0,8.639-3.868,8.639-8.639v-11.703C511.714,256.126,500.703,237.007,482.981,226.722z
	 M257.423,161.117c0-45.251-24.406-84.905-60.747-106.493h85.465c58.721,0,106.493,47.773,106.493,106.493
	s-47.773,106.493-106.493,106.493h-85.465C233.018,246.023,257.423,206.368,257.423,161.117z M254.03,325.493
	c24.899,0,45.155,20.256,45.155,45.155c0,24.892-20.256,45.144-45.155,45.144s-45.155-20.252-45.155-45.144
	C208.875,345.75,229.131,325.493,254.03,325.493z M93.833,448.794c-25.635,0-46.49-20.855-46.49-46.491v-36.759
	c9.821,9.676,23.074,15.871,37.746,16.573c5.4,29.146,30.932,50.955,61.365,50.955c8.947,0,17.454-1.906,25.154-5.311l-13.04,21.035
	H93.833V448.794z M178.898,448.794l25.222-40.689c11.403,15.149,29.531,24.965,49.91,24.965c12.302,0,23.777-3.591,33.454-9.759
	l-15.796,25.483H178.898z M361.62,415.792c-24.899,0-45.155-20.252-45.155-45.144c0-24.899,20.256-45.155,45.155-45.155
	c19.693,0,36.968,12.585,42.988,31.314c1.43,4.448,2.154,9.105,2.154,13.841C406.762,395.54,386.512,415.792,361.62,415.792z"/>
<path d="M115.12,370.648c0,17.271,14.056,31.321,31.332,31.321c17.27,0,31.319-14.05,31.319-31.321
	c0-17.276-14.05-31.332-31.319-31.332C129.177,339.316,115.12,353.372,115.12,370.648z M160.494,370.648
	c0,7.743-6.299,14.042-14.041,14.042c-7.75,0-14.053-6.299-14.053-14.042c0-7.749,6.304-14.053,14.053-14.053
	C154.195,356.595,160.494,362.9,160.494,370.648z"/>
<path d="M254.03,401.969c17.276,0,31.332-14.05,31.332-31.321c0-17.276-14.056-31.332-31.332-31.332s-31.332,14.056-31.332,31.332
	C222.698,387.919,236.753,401.969,254.03,401.969z M254.03,356.595c7.75,0,14.053,6.304,14.053,14.053
	c0,7.743-6.304,14.042-14.053,14.042s-14.053-6.299-14.053-14.042C239.976,362.9,246.281,356.595,254.03,356.595z"/>
<path d="M378.996,353.715c-4.376,1.9-6.385,6.988-4.486,11.365c0.763,1.758,1.15,3.632,1.15,5.568
	c0,7.743-6.299,14.042-14.041,14.042c-7.75,0-14.053-6.299-14.053-14.042c0-7.749,6.304-14.053,14.053-14.053
	c4.772,0,8.639-3.868,8.639-8.639s-3.867-8.639-8.639-8.639c-17.276,0-31.332,14.056-31.332,31.332
	c0,17.271,14.056,31.321,31.332,31.321c17.27,0,31.319-14.05,31.319-31.321c0-4.317-0.867-8.506-2.578-12.448
	C388.462,353.825,383.374,351.815,378.996,353.715z"/>
<g>
</g>
<g>
</g>
<g>
</g>
<g>
</g>
<g>
</g>
<g>
</g>
<g>
</g>
<g>
</g>
<g>
</g>
<g>
</g>
<g>
</g>
<g>
</g>
<g>
</g>
<g>
</g>
<g>
</g>
</svg>
